{"title":"The A Word (2016) S01E02 x264 RB58.mp4","uid":14382128,"size":675389285,"categoryP":"video","categoryS":"tv_shows","magnet":"?xt=urn:btih:d36c7d084b8d91f195f98ce53e718983734d8f03&amp;dn=The+A+Word+%282016%29+S01E02+x264+RB58.mp4&amp;tr=udp%3A%2F%2Ftracker.leechers-paradise.org%3A6969&amp;tr=udp%3A%2F%2Fzer0day.ch%3A1337&amp;tr=udp%3A%2F%2Fopen.demonii.com%3A1337&amp;tr=udp%3A%2F%2Ftracker.coppersurfer.tk%3A6969&amp;tr=udp%3A%2F%2Fexodus.desync.com%3A6969","seeders":0,"leechers":1,"uploader":"RedBaron58","files":1,"time":1461241783,"description":"The A Word (2016) S01E02 x264 mp4\r\n \nhttp://www.imdb.com/title/tt5311790/\r\n\r\nTrailer:\r\n\r\n\r\nPlease be patient My intial upload speed is limited.\r\nThank you for your kind comments and feedback on my other torrents, your feedback is welcome.\r\n\r\n\r\nAbout the Episode:\r\nFollowing Joe's autism diagnosis, Paul, Alison and Rebecca clash over how best to deal with \r\nhis first weeks at school. \r\nMeanwhile, Eddie is troubled by thoughts of Nicola's ex-lover Michael, and Maurice tries \r\nhard to avoid his singing teacher, Louise.\r\n \r\nStarring Morven Christie, Lee Ingleby and Christopher Eccleston.\r\n\r\n\r\nI hope you enjoy.\r\n\r\n\r\nTechnical:\r\n\r\nGeneral\r\nComplete name                            : G:The A Word (2016) S01E02 x264 RB58.mp4\r\nFormat                                   : MPEG-4\r\nFormat profile                           : Base Media\r\nCodec ID                                 : isom\r\nFile size                                : 644 MiB\r\nDuration                                 : 58mn 59s\r\nOverall bit rate                         : 1 526 Kbps\r\nWriting application                      : Lavf54.63.104\r\n\r\nVideo\r\nID                                       : 1\r\nFormat                                   : AVC\r\nFormat/Info                              : Advanced Video Codec\r\nFormat profile                           :   \r\nFormat settings, CABAC                   : Yes\r\nFormat settings, ReFrames                : 4 frames\r\nCodec ID                                 : avc1\r\nCodec ID/Info                            : Advanced Video Coding\r\nDuration                                 : 58mn 59s\r\nBit rate                                 : 1 400 Kbps\r\nWidth                                    : 832 pixels\r\nHeight                                   : 468 pixels\r\nDisplay aspect ratio                     : 16:9\r\nFrame rate mode                          : Constant\r\nFrame rate                               : 25.000 fps\r\nColor space                              : YUV\r\nChroma subsampling                       : 4:2:0\r\nBit depth                                : 8 bits\r\nScan type                                : Progressive\r\nBits/(Pixel*Frame)                       : 0.144\r\nStream size                              : 591 MiB (92%)\r\nWriting library                          : x264 core 123 r2189 35cf912\r\nEncoding settings                        : cabac=1 / ref=3 / deblock=1:0:0\r\n\r\nAudio\r\nID                                       : 2\r\nFormat                                   : AAC\r\nFormat/Info                              : Advanced Audio Codec\r\nFormat profile                           : LC\r\nCodec ID                                 : 40\r\nDuration                                 : 58mn 59s\r\nBit rate mode                            : Constant\r\nBit rate                                 : 118 Kbps\r\nChannel(s)                               : 2 channels\r\nChannel positions                        : Front: L R\r\nSampling rate                            : 48.0 KHz\r\nCompression mode                         : Lossy\r\nStream size                              : 49.8 MiB (8%)","torrent":{"xt":"urn:btih:d36c7d084b8d91f195f98ce53e718983734d8f03","amp;dn":"The+A+Word+%282016%29+S01E02+x264+RB58.mp4","amp;tr":["udp%3A%2F%2Ftracker.leechers-paradise.org%3A6969","udp%3A%2F%2Fzer0day.ch%3A1337","udp%3A%2F%2Fopen.demonii.com%3A1337","udp%3A%2F%2Ftracker.coppersurfer.tk%3A6969","udp%3A%2F%2Fexodus.desync.com%3A6969"],"infoHash":"d36c7d084b8d91f195f98ce53e718983734d8f03","infoHashBuffer":{"type":"Buffer","data":[211,108,125,8,75,141,145,241,149,249,140,229,62,113,137,131,115,77,143,3]},"announce":[],"urlList":[]}}